<svg xmlns="http://www.w3.org/2000/svg" viewBox="-2 -3 36 38"><g fill="#d97757"><path d="M 11.10 4.65 C 11.65 4.40 12.40 4.55 12.85 4.95 C 13.20 5.65 13.25 6.45 13.10 7.20 C 12.65 9.05 12.35 10.95 12.05 12.85 C 11.85 14.55 11.60 16.25 11.45 17.95 C 11.25 19.95 11.00 21.95 10.75 23.95 C 10.50 25.65 10.15 27.35 9.75 29.05 C 9.55 29.75 9.30 30.40 8.85 30.95 C 8.55 31.10 8.10 30.95 7.95 30.65 C 7.95 29.85 8.20 29.10 8.45 28.35 C 8.95 25.95 9.30 23.50 9.65 21.10 C 10.05 18.30 10.45 15.50 10.85 12.70 C 11.10 10.55 11.30 8.40 11.40 6.25 C 11.35 5.70 11.20 5.20 11.10 4.65 Z"></path><path d="M 24.20 1.70 C 24.85 1.55 25.55 1.95 25.75 2.55 C 25.85 3.65 25.50 4.70 25.15 5.70 C 24.65 7.65 24.10 9.60 23.65 11.55 C 23.05 14.25 22.45 16.95 21.90 19.65 C 21.35 22.30 20.80 24.95 20.20 27.55 C 19.70 29.65 19.10 31.75 18.30 33.75 C 18.00 33.95 17.55 33.85 17.45 33.55 C 17.45 32.85 17.65 32.20 17.85 31.55 C 18.40 28.95 18.95 26.35 19.50 23.75 C 20.15 20.65 20.85 17.55 21.55 14.45 C 22.20 11.55 22.85 8.65 23.45 5.75 C 23.70 4.40 23.95 3.05 24.20 1.70 Z"></path><path d="M 3.85 12.10 C 4.40 11.75 5.05 11.65 5.65 11.85 C 7.85 11.45 10.05 11.30 12.25 11.10 C 15.65 11.00 19.05 11.30 22.45 11.65 C 24.85 11.75 27.25 11.65 29.65 12.05 C 30.45 12.20 31.25 12.25 31.95 12.65 C 32.20 12.95 32.30 13.40 32.10 13.75 C 31.75 14.20 31.20 14.35 30.65 14.30 C 27.45 13.85 24.25 14.15 21.05 13.90 C 17.35 13.55 13.65 13.15 9.95 13.30 C 7.65 13.45 5.40 13.85 3.10 13.75 C 2.75 13.55 2.65 13.10 2.85 12.80 C 3.15 12.45 3.50 12.25 3.85 12.10 Z"></path><path d="M 4.65 20.55 C 5.40 20.05 6.30 19.90 7.10 20.05 C 9.85 20.65 12.65 21.00 15.45 21.25 C 19.15 21.55 22.85 21.65 26.55 22.20 C 28.35 22.45 30.15 22.55 31.95 22.95 C 32.30 23.20 32.50 23.65 32.30 24.05 C 32.05 24.50 31.55 24.70 31.05 24.60 C 27.35 24.10 23.65 23.85 19.95 23.65 C 15.55 23.40 11.15 23.30 6.75 22.65 C 5.65 22.45 4.55 22.35 3.50 21.95 C 3.25 21.65 3.30 21.20 3.55 20.95 C 3.95 20.75 4.30 20.65 4.65 20.55 Z"></path></g></svg>